<?xml version="1.0" encoding="utf-8"?>
<!-- Generator: Adobe Illustrator 28.0.0, SVG Export Plug-In . SVG Version: 6.00 Build 0)  -->
<svg version="1.1" id="Layer_1" xmlns="http://www.w3.org/2000/svg" xmlns:xlink="http://www.w3.org/1999/xlink" x="0px" y="0px"
	 viewBox="0 0 500 500" style="enable-background:new 0 0 500 500;" xml:space="preserve">
<style type="text/css">
	.st0{fill:#FFFFFF;}
</style>
<path d="M276.5,367.8C276.5,387,250,420,250,420s-26.5-33-26.5-52.2c0-19.2,11.9-34.8,26.5-34.8S276.5,348.6,276.5,367.8z"/>
<g>
	<rect x="507.5" y="205.5" class="st0" width="63" height="63"/>
	<path d="M570,206v62h-62v-62H570 M571,205h-64v64h64V205L571,205z"/>
</g>
<g>
	<g>
		<path d="M324.6,369.5c-2,0-4-0.6-5.4-1.8l-62.7-51c-1.6-1.3-3.8-2-6-2c-2.3,0-4.4,0.7-6,2l-62.7,51c-1.4,1.2-3.4,1.8-5.4,1.8l0,0
			c-2.3,0-4.4-0.8-5.9-2.2c-16.6-16-25.3-36.6-24.4-57.8c0.9-21.7,11.7-42,30.4-57.2c19.6-16,46-24.8,74.1-24.8
			c28.1,0,54.4,8.8,74.1,24.8c18.7,15.2,29.4,35.5,30.4,57.2c0.9,21.3-7.8,41.8-24.4,57.8C329.1,368.7,326.9,369.5,324.6,369.5z"/>
		<path d="M250.5,227v1c28,0,54.2,8.8,73.8,24.7c18.6,15.1,29.3,35.3,30.2,56.8c0.9,21.1-7.7,41.5-24.3,57.4
			c-1.4,1.3-3.4,2.1-5.5,2.1c-1.9,0-3.7-0.6-5.1-1.7l-62.7-51c-1.7-1.4-4-2.2-6.4-2.2s-4.6,0.8-6.4,2.2l-62.7,51
			c-1.3,1.1-3.2,1.7-5.1,1.7c-2.1,0-4.2-0.8-5.5-2.1c-16.5-15.9-25.2-36.3-24.3-57.4c0.9-21.5,11.6-41.7,30.2-56.8
			c19.6-15.9,45.8-24.7,73.8-24.7V227 M250.5,227c-27,0-54,8.3-74.4,24.9c-38.7,31.5-40.7,82.3-6,115.7c1.6,1.6,3.9,2.4,6.2,2.4
			c2.1,0,4.1-0.6,5.7-1.9l62.7-51c1.6-1.3,3.7-1.9,5.7-1.9c2.1,0,4.1,0.6,5.7,1.9l62.7,51c1.6,1.3,3.7,1.9,5.7,1.9
			c2.3,0,4.6-0.8,6.2-2.4c34.7-33.5,32.7-84.3-6-115.7C304.5,235.3,277.5,227,250.5,227L250.5,227z"/>
	</g>
	<g>
		<path d="M250.5,357.5c-22.7,0-42.1-9.1-56.1-26.2c-15.3-18.7-23.4-46.6-23.4-80.6c0-33.7,10.7-78.4,28-116.8
			c17.1-37.9,36.8-61.5,51.5-61.5c13.4,0,33.1,24.1,50.4,61.5c18.2,39.5,29.1,83.2,29.1,116.7c0,34-8.1,61.8-23.4,80.6
			C292.6,348.4,273.2,357.5,250.5,357.5z"/>
		<path class="st0" d="M250.5,74.5c12.4,0,31.9,24.2,48.6,60.3c18.1,39.3,28.9,82.6,28.9,115.9c0,33.5-7.9,60.9-23,79.3
			c-13.6,16.7-32.5,25.5-54.5,25.5s-40.9-8.8-54.5-25.5c-15-18.4-23-45.8-23-79.3c0-33.4,10.7-77.9,27.8-115.9
			C217.3,98.2,236.8,74.5,250.5,74.5 M250.5,70.5c-33.5,0-81.5,107-81.5,180.2c0,73.2,36.5,108.8,81.5,108.8S332,324,332,250.7
			C332,177.5,281,70.5,250.5,70.5L250.5,70.5z"/>
	</g>
	<g>
		<path d="M250.5,388c-6.9,0-12.5-5.6-12.5-12.5v-101c0-6.9,5.6-12.5,12.5-12.5s12.5,5.6,12.5,12.5v101
			C263,382.4,257.4,388,250.5,388z"/>
		<g>
			<path class="st0" d="M250.5,264c5.8,0,10.5,4.7,10.5,10.5v101c0,5.8-4.7,10.5-10.5,10.5c-5.8,0-10.5-4.7-10.5-10.5v-101
				C240,268.7,244.7,264,250.5,264 M250.5,260L250.5,260c-8,0-14.5,6.5-14.5,14.5v101c0,8,6.5,14.5,14.5,14.5h0
				c8,0,14.5-6.5,14.5-14.5v-101C265,266.5,258.5,260,250.5,260L250.5,260z"/>
		</g>
	</g>
</g>
</svg>
