<?xml version="1.0" encoding="utf-8"?>
<!-- Generator: Adobe Illustrator 28.0.0, SVG Export Plug-In . SVG Version: 6.00 Build 0)  -->
<svg version="1.1" id="Layer_1" xmlns="http://www.w3.org/2000/svg" xmlns:xlink="http://www.w3.org/1999/xlink" x="0px" y="0px"
	 viewBox="0 0 500 500" style="enable-background:new 0 0 500 500;" xml:space="preserve">
<g>
	<g>
		<path d="M82,418L82,418c9.3,9.3,24.6,9.3,34,0l302-302c9.3-9.3,9.3-24.6,0-34l0,0c-9.3-9.3-24.6-9.3-34,0L82,384
			C72.7,393.4,72.7,408.6,82,418z"/>
	</g>
	<g>
		<path d="M418,418L418,418c-9.3,9.3-24.6,9.3-34,0L82,116c-9.3-9.3-9.3-24.6,0-34l0,0c9.3-9.3,24.6-9.3,34,0l302,302
			C427.3,393.4,427.3,408.6,418,418z"/>
	</g>
</g>
</svg>
